<?xml version="1.0" encoding="UTF-8" standalone="no"?>
<svg width="23px" height="19px" viewBox="0 0 23 19" version="1.1" xmlns="http://www.w3.org/2000/svg" xmlns:xlink="http://www.w3.org/1999/xlink" xmlns:sketch="http://www.bohemiancoding.com/sketch/ns">
    <!-- Generator: Sketch 3.4.1 (15681) - http://www.bohemiancoding.com/sketch -->
    <title>Twitter</title>
    <desc>Created with Sketch.</desc>
    <defs></defs>
    <g id="Page-1" stroke="none" stroke-width="1" fill="none" fill-rule="evenodd" sketch:type="MSPage">
        <g id="главная-copy-6" sketch:type="MSArtboardGroup" transform="translate(-239.000000, -3038.000000)" fill="#FFFFFF">
            <g id="Group-Copy" sketch:type="MSLayerGroup" transform="translate(-3.000000, 2949.000000)">
                <g id="Group" transform="translate(242.000000, 87.000000)" sketch:type="MSShapeGroup">
                    <path d="M22.6990897,4.77423143 C21.8886959,5.14328165 21.0161633,5.39285519 20.1009103,5.50436677 C21.0355817,4.93087864 21.7527673,4.02152826 22.0906471,2.93827291 C21.2155254,3.46928044 20.24849,3.85558841 19.2154321,4.06268134 C18.3920927,3.16129607 17.2153388,2.5984281 15.9130127,2.5984281 C13.4158089,2.5984281 11.3898244,4.67599503 11.3898244,7.23810633 C11.3898244,7.60184649 11.4286612,7.95496649 11.5063347,8.2948113 C7.74564155,8.10099356 4.41215276,6.25574241 2.17903891,3.4453851 C1.78937672,4.13303984 1.56671262,4.93087864 1.56671262,5.78049068 C1.56671262,7.38944348 2.36545537,8.8098886 3.57975148,9.64224289 C2.83926387,9.61967507 2.14020215,9.40859958 1.52917041,9.06344469 L1.52917041,9.120528 C1.52917041,11.3693449 3.08911371,13.2451289 5.16040772,13.669935 C4.781102,13.7787915 4.38108335,13.8332198 3.96811911,13.8332198 C3.67684339,13.8332198 3.39204046,13.8053419 3.11629945,13.7509136 C3.69237809,15.5935097 5.36235888,16.9356312 7.34303377,16.9714742 C5.79474151,18.2166869 3.84254691,18.9587699 1.72335423,18.9587699 C1.35828866,18.9587699 0.997106767,18.9375296 0.643692228,18.895049 C2.64637462,20.2092926 5.02577361,20.977926 7.57993803,20.977926 C15.9039508,20.977926 20.4543248,13.9088883 20.4543248,7.77707897 C20.4543248,7.57529611 20.4504411,7.37351325 20.4426738,7.17571295 C21.3268574,6.52124618 22.0945308,5.70482211 22.6990897,4.77423143" id="Twitter"></path>
                </g>
            </g>
        </g>
    </g>
</svg>