<?xml version="1.0" encoding="UTF-8" standalone="no"?>
<svg width="24px" height="33px" viewBox="0 0 24 33" version="1.1" xmlns="http://www.w3.org/2000/svg" xmlns:xlink="http://www.w3.org/1999/xlink" xmlns:sketch="http://www.bohemiancoding.com/sketch/ns">
    <!-- Generator: Sketch 3.4.1 (15681) - http://www.bohemiancoding.com/sketch -->
    <title>Page 1 Copy 2</title>
    <desc>Created with Sketch.</desc>
    <defs></defs>
    <g id="Page-1" stroke="none" stroke-width="1" fill="none" fill-rule="evenodd" sketch:type="MSPage">
        <g id="главная-copy-6" sketch:type="MSArtboardGroup" transform="translate(-689.000000, -1147.000000)" fill="#FFFFFF">
            <path d="M706.4582,1156.80892 C707.99644,1154.88216 710.60564,1153.37296 710.60564,1153.37296 L711.60048,1149.9238 L704.12224,1149.64528 L703.63956,1147 L696.37252,1164.38176 L692.45872,1176.48176 C691.74548,1176.14296 690.42196,1175.31664 689.09712,1173.45676 C689.09712,1173.45676 688.57088,1176.4888 689.96832,1178.21096 C690.52712,1178.9 691.62888,1179.43284 691.62888,1179.43284 L709.70804,1179.43284 C709.70804,1177.57648 704.89224,1177.21216 704.89224,1177.21216 C704.89224,1176.92 704.87156,1176.46284 704.83724,1176.46284 C704.784,1176.46284 704.79456,1175.91636 704.58116,1175.2458 C704.57456,1175.22556 704.56928,1175.15824 704.56224,1175.13932 C704.55036,1175.105 704.53804,1175.04472 704.5244,1175.0104 C704.39724,1174.66324 704.24104,1174.32796 704.06196,1174.0292 C703.3232,1172.8038 701.83292,1171.35312 698.82156,1170.44364 L699.29104,1169.59972 C699.29104,1169.59972 702.74064,1170.33892 704.57588,1172.83284 L705.61604,1169.31636 L708.18696,1177.12284 C708.23008,1177.12284 710.6998,1177.8088 710.6998,1179.43284 L712.25388,1179.43284 C712.25388,1179.43284 711.9582,1178.28488 710.82872,1177.86688 L706.4582,1156.80892 Z" id="Page-1-Copy-2" sketch:type="MSShapeGroup"></path>
        </g>
    </g>
</svg>