<?xml version="1.0" encoding="UTF-8" standalone="no"?>
<svg width="23px" height="16px" viewBox="0 0 23 16" version="1.1" xmlns="http://www.w3.org/2000/svg" xmlns:xlink="http://www.w3.org/1999/xlink" xmlns:sketch="http://www.bohemiancoding.com/sketch/ns">
    <!-- Generator: Sketch 3.4.1 (15681) - http://www.bohemiancoding.com/sketch -->
    <title>Page 1</title>
    <desc>Created with Sketch.</desc>
    <defs></defs>
    <g id="Page-1" stroke="none" stroke-width="1" fill="none" fill-rule="evenodd" sketch:type="MSPage">
        <g id="главная-copy-6" sketch:type="MSArtboardGroup" transform="translate(-92.000000, -554.000000)" fill="#FFFFFF">
            <g id="Page-1" sketch:type="MSLayerGroup" transform="translate(92.000000, 554.000000)">
                <path d="M20.1933333,0 L1.90666667,0 C0.85592,0 0,0.85592 0,1.90666667 L0,14.07536 C0,15.1261067 0.85592,15.9820267 1.90666667,15.9820267 L20.1933333,15.9820267 C21.24408,15.9820267 22.1,15.1274933 22.1,14.07536 L22.1,1.90666667 C22.1,0.85592 21.24408,0 20.1933333,0 L20.1933333,0 Z M13.78,7.99101333 L21.03712,1.67370667 C21.0572267,1.74824 21.0721333,1.82554667 21.0721333,1.90666667 L21.0721333,14.07536 C21.0721333,14.15648 21.0572267,14.2337867 21.03712,14.30832 L13.78,7.99101333 Z M20.1933333,1.02786667 C20.19888,1.02786667 20.20408,1.02925333 20.2110133,1.02925333 L11.6268533,8.50304 C11.29232,8.79389333 10.80768,8.79389333 10.4731467,8.50304 L1.88898667,1.02925333 C1.89453333,1.02925333 1.89973333,1.02786667 1.90666667,1.02786667 L20.1933333,1.02786667 Z M1.06288,14.30832 C1.04277333,14.2337867 1.02786667,14.15648 1.02786667,14.07536 L1.02786667,1.90666667 C1.02786667,1.82554667 1.04277333,1.74824 1.06288,1.67370667 L8.32,7.99101333 L1.06288,14.30832 Z M1.90666667,14.95416 C1.90112,14.95416 1.89592,14.9527733 1.88898667,14.9527733 L9.10277333,8.67221333 L9.79749333,9.27749333 C10.1604533,9.59296 10.6045333,9.75138667 11.0486133,9.75138667 C11.4926933,9.75138667 11.93816,9.59296 12.30112,9.27749333 L12.99584,8.67221333 L20.2096267,14.9527733 C20.20408,14.9527733 20.19888,14.95416 20.1933333,14.95416 L1.90666667,14.95416 Z" sketch:type="MSShapeGroup"></path>
            </g>
        </g>
    </g>
</svg>