<?xml version="1.0" encoding="UTF-8" standalone="no"?>
<svg width="23px" height="23px" viewBox="0 0 23 23" version="1.1" xmlns="http://www.w3.org/2000/svg" xmlns:xlink="http://www.w3.org/1999/xlink" xmlns:sketch="http://www.bohemiancoding.com/sketch/ns">
    <!-- Generator: Sketch 3.4.1 (15681) - http://www.bohemiancoding.com/sketch -->
    <title>Facebook</title>
    <desc>Created with Sketch.</desc>
    <defs></defs>
    <g id="Page-1" stroke="none" stroke-width="1" fill="none" fill-rule="evenodd" sketch:type="MSPage">
        <g id="главная-copy-6" sketch:type="MSArtboardGroup" transform="translate(-280.000000, -3036.000000)" fill="#FFFFFF">
            <g id="Group-Copy" sketch:type="MSLayerGroup" transform="translate(-3.000000, 2949.000000)">
                <g id="Group" transform="translate(242.000000, 87.000000)" sketch:type="MSShapeGroup">
                    <path d="M52.8031029,22.8158758 L42.2398891,22.8158758 C41.5674021,22.8158758 41.0226004,22.270736 41.0226004,21.598511 L41.0226004,1.97775749 C41.0226004,1.30536136 41.5674877,0.760478309 42.2398891,0.760478309 L61.8607949,0.760478309 C62.5330251,0.760478309 63.0779979,1.30536136 63.0779979,1.97775749 L63.0779979,21.598511 C63.0779979,22.2708216 62.5329395,22.8158758 61.8607949,22.8158758 L56.2405055,22.8158758 L56.2405055,14.2748104 L59.1073469,14.2748104 L59.5366157,10.9462056 L56.2405055,10.9462056 L56.2405055,8.82110183 C56.2405055,7.85739395 56.5081139,7.20065882 57.8900582,7.20065882 L59.6526621,7.19988861 L59.6526621,4.22275783 C59.3478264,4.18219327 58.3015264,4.09156485 57.0842378,4.09156485 C54.5429424,4.09156485 52.8031029,5.64277424 52.8031029,8.49145058 L52.8031029,10.9462056 L49.9289016,10.9462056 L49.9289016,14.2748104 L52.8031029,14.2748104 L52.8031029,22.8158758 L52.8031029,22.8158758 Z" id="Facebook"></path>
                </g>
            </g>
        </g>
    </g>
</svg>