<?xml version="1.0" encoding="UTF-8" standalone="no"?>
<svg width="31px" height="20px" viewBox="0 0 31 20" version="1.1" xmlns="http://www.w3.org/2000/svg" xmlns:xlink="http://www.w3.org/1999/xlink" xmlns:sketch="http://www.bohemiancoding.com/sketch/ns">
    <!-- Generator: Sketch 3.4.1 (15681) - http://www.bohemiancoding.com/sketch -->
    <title>GooglePlus</title>
    <desc>Created with Sketch.</desc>
    <defs></defs>
    <g id="Page-1" stroke="none" stroke-width="1" fill="none" fill-rule="evenodd" sketch:type="MSPage">
        <g id="главная-copy-6" sketch:type="MSArtboardGroup" transform="translate(-435.000000, -3038.000000)" fill="#FFFFFF">
            <g id="Group-Copy" sketch:type="MSLayerGroup" transform="translate(-3.000000, 2949.000000)">
                <g id="Group" transform="translate(242.000000, 87.000000)" sketch:type="MSShapeGroup">
                    <path d="M223.640506,10.0685112 L223.640506,6.72471636 L221.256373,6.72471636 L221.256373,10.0685112 L217.823222,10.0685112 L217.823222,12.456936 L221.256373,12.456936 L221.256373,15.8962678 L223.640506,15.8962678 L223.640506,12.456936 L226.978292,12.456936 L226.978292,10.0685112 L223.640506,10.0685112 L223.640506,10.0685112 Z M206.284018,9.87743717 L206.284018,13.6989169 C206.284018,13.6989169 209.984574,13.693949 211.491346,13.693949 C210.6754,16.1713188 209.40666,17.5203967 206.284018,17.5203967 C203.123897,17.5203967 200.657464,14.9539864 200.657464,11.788177 C200.657464,8.62236768 203.123897,6.05595741 206.284018,6.05595741 C207.954818,6.05595741 209.033877,6.64427422 210.023674,7.46426823 C210.815969,6.67054689 210.749785,6.55743109 212.765522,4.65041715 C211.054382,3.09010696 208.78011,2.13894065 206.284018,2.13894065 C200.964445,2.13894065 196.652121,6.45902798 196.652121,11.788177 C196.652121,17.1172306 200.964445,21.4374134 206.284018,21.4374134 C214.235292,21.4374134 216.178742,14.5014277 215.534454,9.87743717 L206.284018,9.87743717 L206.284018,9.87743717 Z" id="GooglePlus"></path>
                </g>
            </g>
        </g>
    </g>
</svg>