<?xml version="1.0" encoding="UTF-8" standalone="no"?>
<svg width="23px" height="23px" viewBox="0 0 23 23" version="1.1" xmlns="http://www.w3.org/2000/svg" xmlns:xlink="http://www.w3.org/1999/xlink" xmlns:sketch="http://www.bohemiancoding.com/sketch/ns">
    <!-- Generator: Sketch 3.4.1 (15681) - http://www.bohemiancoding.com/sketch -->
    <title>Instagram</title>
    <desc>Created with Sketch.</desc>
    <defs></defs>
    <g id="Page-1" stroke="none" stroke-width="1" fill="none" fill-rule="evenodd" sketch:type="MSPage">
        <g id="главная-copy-6" sketch:type="MSArtboardGroup" transform="translate(-324.000000, -3036.000000)" fill="#FFFFFF">
            <g id="Group-Copy" sketch:type="MSLayerGroup" transform="translate(-3.000000, 2949.000000)">
                <g id="Group" transform="translate(242.000000, 87.000000)" sketch:type="MSShapeGroup">
                    <path d="M104.625482,20.7481823 L88.0839336,20.7481823 C87.703478,20.7481823 87.3947024,20.4394067 87.3947024,20.0589511 L87.3947024,9.72048353 L90.1516271,9.72048353 C89.7925377,10.2374069 89.671233,11.2016413 89.671233,11.8136786 C89.671233,15.5045115 92.6811055,18.5074917 96.3802092,18.5074917 C100.080002,18.5074917 103.089875,15.5045115 103.089875,11.8136786 C103.089875,11.2016413 103.003032,10.2518808 102.557788,9.72048353 L105.314713,9.72048353 L105.314713,20.0589511 C105.314713,20.4394067 105.005937,20.7481823 104.625482,20.7481823 M96.3802092,7.58248844 C98.722906,7.58248844 100.621738,9.47718493 100.621738,11.8136786 C100.621738,14.1508615 98.722906,16.045558 96.3802092,16.045558 C94.0382017,16.045558 92.1393698,14.1508615 92.1393698,11.8136786 C92.1393698,9.47718493 94.0382017,7.58248844 96.3802092,7.58248844 M101.868557,3.51740299 L103.936251,3.51740299 C104.316706,3.51740299 104.625482,3.82617856 104.625482,4.20663416 L104.625482,6.27432768 C104.625482,6.65478328 104.316706,6.96355885 103.936251,6.96355885 L101.868557,6.96355885 C101.488101,6.96355885 101.179326,6.65478328 101.179326,6.27432768 L101.179326,4.20663416 C101.179326,3.82617856 101.488101,3.51740299 101.868557,3.51740299 M104.760571,0.760478309 L87.9488443,0.760478309 C86.5007696,0.760478309 85.3270089,1.93148207 85.3270089,3.3761106 L85.3270089,20.2002435 C85.3270089,21.644872 86.5007696,22.8158758 87.9488443,22.8158758 L104.760571,22.8158758 C106.208646,22.8158758 107.382406,21.644872 107.382406,20.2002435 L107.382406,3.3761106 C107.382406,1.93148207 106.208646,0.760478309 104.760571,0.760478309" id="Instagram"></path>
                </g>
            </g>
        </g>
    </g>
</svg>