<?xml version="1.0" encoding="UTF-8" standalone="no"?>
<svg width="21px" height="19px" viewBox="0 0 21 19" version="1.1" xmlns="http://www.w3.org/2000/svg" xmlns:xlink="http://www.w3.org/1999/xlink" xmlns:sketch="http://www.bohemiancoding.com/sketch/ns">
    <!-- Generator: Sketch 3.4.1 (15681) - http://www.bohemiancoding.com/sketch -->
    <title>LinkedIn</title>
    <desc>Created with Sketch.</desc>
    <defs></defs>
    <g id="Page-1" stroke="none" stroke-width="1" fill="none" fill-rule="evenodd" sketch:type="MSPage">
        <g id="главная-copy-6" sketch:type="MSArtboardGroup" transform="translate(-365.000000, -3038.000000)" fill="#FFFFFF">
            <g id="Group-Copy" sketch:type="MSLayerGroup" transform="translate(-3.000000, 2949.000000)">
                <g id="Group" transform="translate(242.000000, 87.000000)" sketch:type="MSShapeGroup">
                    <path d="M146.567057,20.977926 L142.098725,20.977926 L142.098725,14.5167975 C142.098725,12.825606 141.399768,11.6710764 139.862776,11.6710764 C138.68715,11.6710764 138.033364,12.4501779 137.729056,13.201034 C137.61494,13.4705419 137.632771,13.84597 137.632771,14.221398 L137.632771,20.977926 L133.206044,20.977926 C133.206044,20.977926 133.263102,9.53266653 133.206044,8.49229539 L137.632771,8.49229539 L137.632771,10.451818 C137.894286,9.59504172 139.308841,8.37225256 141.566187,8.37225256 C144.366769,8.37225256 146.567057,10.1681874 146.567057,14.0354493 L146.567057,20.977926 L146.567057,20.977926 Z M128.729391,6.93056178 L128.700862,6.93056178 C127.27442,6.93056178 126.349609,5.97610364 126.349609,4.76626028 C126.349609,3.5328791 127.30176,2.5984281 128.756731,2.5984281 C130.210514,2.5984281 131.104418,3.53052532 131.132947,4.76272961 C131.132947,5.97257297 130.210514,6.93056178 128.729391,6.93056178 L128.729391,6.93056178 L128.729391,6.93056178 Z M126.859563,8.49229539 L130.800111,8.49229539 L130.800111,20.977926 L126.859563,20.977926 L126.859563,8.49229539 L126.859563,8.49229539 Z" id="LinkedIn"></path>
                </g>
            </g>
        </g>
    </g>
</svg>