<?xml version="1.0" encoding="UTF-8" standalone="no"?>
<svg width="23px" height="23px" viewBox="0 0 23 23" version="1.1" xmlns="http://www.w3.org/2000/svg" xmlns:xlink="http://www.w3.org/1999/xlink" xmlns:sketch="http://www.bohemiancoding.com/sketch/ns">
    <!-- Generator: Sketch 3.4.1 (15681) - http://www.bohemiancoding.com/sketch -->
    <title>Pinterest</title>
    <desc>Created with Sketch.</desc>
    <defs></defs>
    <g id="Page-1" stroke="none" stroke-width="1" fill="none" fill-rule="evenodd" sketch:type="MSPage">
        <g id="главная-copy-6" sketch:type="MSArtboardGroup" transform="translate(-401.000000, -3036.000000)" fill="#FFFFFF">
            <g id="Group-Copy" sketch:type="MSLayerGroup" transform="translate(-3.000000, 2949.000000)">
                <g id="Group" transform="translate(242.000000, 87.000000)" sketch:type="MSShapeGroup">
                    <path d="M173.477845,0.760478309 C167.387873,0.760478309 162.449498,5.69755705 162.449498,11.7888255 C162.449498,16.3031336 165.165086,20.1832859 169.051722,21.8886335 C169.020598,21.119606 169.046535,20.1936606 169.242358,19.3559005 C169.45504,18.4610792 170.661103,13.3476299 170.661103,13.3476299 C170.661103,13.3476299 170.309659,12.6434446 170.309659,11.6020802 C170.309659,9.96805884 171.257651,8.74773021 172.436481,8.74773021 C173.43894,8.74773021 173.923959,9.5011956 173.923959,10.4037979 C173.923959,11.4114444 173.280725,12.919672 172.95003,14.3163712 C172.673803,15.4874198 173.536203,16.4405989 174.690393,16.4405989 C176.779605,16.4405989 178.186679,13.7574321 178.186679,10.5775747 C178.186679,8.16155748 176.559142,6.35246243 173.598451,6.35246243 C170.253895,6.35246243 168.169869,8.84629023 168.169869,11.6319075 C168.169869,12.5941646 168.452581,13.2711162 168.896101,13.7950405 C169.101002,14.0375501 169.128236,14.1335164 169.054316,14.4110407 C169.002442,14.6120512 168.880539,15.1022576 168.829962,15.2954871 C168.756042,15.5743082 168.530391,15.6754619 168.278804,15.5717145 C166.736859,14.942746 166.019705,13.2555541 166.019705,11.3582738 C166.019705,8.22639959 168.661373,4.46815053 173.900616,4.46815053 C178.111463,4.46815053 180.882815,7.51702684 180.882815,10.7863663 C180.882815,15.1126324 178.478469,18.3443634 174.931605,18.3443634 C173.742401,18.3443634 172.621929,17.7011296 172.238064,16.9710074 C172.238064,16.9710074 171.597424,19.5115215 171.462552,20.0017279 C171.22912,20.8511597 170.771335,21.7018882 170.352455,22.3632778 C171.344539,22.6563642 172.392388,22.8158758 173.477845,22.8158758 C179.567816,22.8158758 184.504895,17.878797 184.504895,11.7888255 C184.504895,5.69755705 179.567816,0.760478309 173.477845,0.760478309" id="Pinterest"></path>
                </g>
            </g>
        </g>
    </g>
</svg>